<svg xmlns="http://www.w3.org/2000/svg" xmlns:xlink="http://www.w3.org/1999/xlink" width="131" height="36" viewBox="0 0 131 36"><defs><style>.cls-1,.cls-4{fill:#fff;}.cls-1{stroke:#dff2fc;}.cls-2{fill:#0c0c0c;}.cls-2,.cls-3,.cls-4{fill-rule:evenodd;}.cls-3{fill:url(#linear-gradient);}</style><linearGradient id="linear-gradient" x1="32.62" y1="26.89" x2="32.62" y2="9.76" gradientUnits="userSpaceOnUse"><stop offset="0" stop-color="#fa233b"/><stop offset="1" stop-color="#fb5c74"/></linearGradient></defs><g id="レイヤー_2" data-name="レイヤー 2"><g id="レイヤー_1-2" data-name="レイヤー 1"><rect class="cls-1" x="0.5" y="0.5" width="130" height="35"/><path class="cls-2" d="M48,13.57,45,21.7h1.31l.74-2.2h3.08l.75,2.2h1.32l-2.92-8.13Zm.65,1.35h0l1.21,3.57H47.4Zm8.69,3.82c0-1.21-.62-2-1.56-2s-1.55.8-1.55,2,.62,2,1.55,2,1.56-.79,1.56-2m1.25,0c0,1.83-1,3-2.46,3a2,2,0,0,1-1.87-1h0v2.94H53V15.77h1.18v1h0a2.09,2.09,0,0,1,1.88-1.05c1.5,0,2.49,1.2,2.49,3m5.24,0c0-1.21-.61-2-1.56-2s-1.55.8-1.55,2,.63,2,1.55,2,1.56-.79,1.56-2m1.25,0c0,1.83-1,3-2.47,3a2,2,0,0,1-1.85-1h0v2.94H59.48V15.77h1.17v1h0a2.12,2.12,0,0,1,1.88-1.05c1.5,0,2.5,1.2,2.5,3m1,3h1.22V13.57H66Zm3.43-3.51h3A1.43,1.43,0,0,0,71,16.68a1.51,1.51,0,0,0-1.51,1.51ZM73.54,20A2.37,2.37,0,0,1,71,21.77a2.7,2.7,0,0,1-2.79-3c0-1.86,1.08-3.06,2.74-3.06a2.61,2.61,0,0,1,2.66,2.92V19H69.44v.07A1.53,1.53,0,0,0,71,20.79,1.34,1.34,0,0,0,72.39,20Zm10.52,1.73v-6h0l-2.45,5.93h-.93L78.2,15.71h0v6H77V13.57h1.45L81.1,20h0l2.62-6.41h1.46V21.7Zm7.61,0H90.51v-1h0a1.85,1.85,0,0,1-1.83,1.08,2,2,0,0,1-2.07-2.19v-3.8h1.21v3.56c0,.91.43,1.38,1.26,1.38a1.37,1.37,0,0,0,1.41-1.53V15.77h1.21v5.92Zm3.45-6c1.31,0,2.25.73,2.27,1.78H96.25c0-.53-.49-.85-1.17-.85S94,16.94,94,17.4s.29.59.9.74l1,.23c1.19.29,1.64.73,1.64,1.6,0,1.07-1,1.8-2.45,1.8s-2.33-.72-2.43-1.8h1.21c.08.57.54.87,1.27.87s1.18-.29,1.18-.77-.22-.56-.85-.72l-1-.26c-1.06-.26-1.6-.8-1.6-1.63,0-1.05.94-1.76,2.31-1.76m3.45,6h1.21V15.77H98.57Zm-.1-7.48a.7.7,0,1,1,.7.69.69.69,0,0,1-.7-.69Zm6.53,3.6a1.31,1.31,0,0,0-1.39-1.1c-.93,0-1.55.79-1.55,2s.62,2,1.56,2A1.27,1.27,0,0,0,105,19.69h1.17a2.36,2.36,0,0,1-2.56,2.08,2.73,2.73,0,0,1-2.79-3,2.74,2.74,0,0,1,2.78-3,2.38,2.38,0,0,1,2.56,2.11Z"/><path class="cls-3" d="M41.41,14.88c0-.21,0-.42,0-.63v-.53a7.46,7.46,0,0,0-.11-1.15,3.55,3.55,0,0,0-.36-1.1,3.47,3.47,0,0,0-.68-.94,3.9,3.9,0,0,0-.93-.68,4.17,4.17,0,0,0-1.1-.36,7.44,7.44,0,0,0-1.15-.1h-8.9a7.46,7.46,0,0,0-1.16.1,4.3,4.3,0,0,0-1.1.36,3.9,3.9,0,0,0-.93.68,4,4,0,0,0-.68.94,3.84,3.84,0,0,0-.36,1.1,7.44,7.44,0,0,0-.1,1.15c0,.18,0,.35,0,.53v7.84c0,.18,0,.35,0,.53a7.57,7.57,0,0,0,.1,1.16,3.88,3.88,0,0,0,.36,1.09,4,4,0,0,0,.68.94,3.68,3.68,0,0,0,2,1,7.46,7.46,0,0,0,1.16.1h8.9a7.44,7.44,0,0,0,1.15-.1,3.84,3.84,0,0,0,1.1-.36,3.9,3.9,0,0,0,.93-.68,3.47,3.47,0,0,0,.68-.94,3.58,3.58,0,0,0,.36-1.09,7.59,7.59,0,0,0,.11-1.16v-.53c0-.21,0-.42,0-.63Z"/><g id="Glyph"><path class="cls-4" d="M36.25,12.07l-.46.08-5.23,1h0a.73.73,0,0,0-.32.15.52.52,0,0,0-.18.34s0,.09,0,.17V20.4a.6.6,0,0,1-.12.43.57.57,0,0,1-.38.2l-.34.06a6.33,6.33,0,0,0-1,.25,1.45,1.45,0,0,0-.57.37,1.4,1.4,0,0,0-.36,1.09,1.37,1.37,0,0,0,.43.87,1.39,1.39,0,0,0,.64.32,2.2,2.2,0,0,0,.94,0,2.14,2.14,0,0,0,.61-.23,1.55,1.55,0,0,0,.48-.44,1.73,1.73,0,0,0,.26-.61,3.47,3.47,0,0,0,.06-.64V16.35c0-.3.08-.38.33-.44L35.6,15c.29-.06.42,0,.42.32v3.87a.64.64,0,0,1-.11.44.6.6,0,0,1-.38.19l-.34.07a6.5,6.5,0,0,0-1,.24,1.71,1.71,0,0,0-.57.37,1.4,1.4,0,0,0-.37,1.09,1.36,1.36,0,0,0,.44.87,1.4,1.4,0,0,0,.64.33,2.41,2.41,0,0,0,.94-.05,2.23,2.23,0,0,0,.61-.22,1.72,1.72,0,0,0,.48-.45,1.69,1.69,0,0,0,.26-.6,3.63,3.63,0,0,0,.05-.65V12.53C36.7,12.23,36.54,12,36.25,12.07Z"/></g></g></g></svg>