<?xml version="1.0" encoding="utf-8"?>
<!-- Generator: Adobe Illustrator 24.0.3, SVG Export Plug-In . SVG Version: 6.00 Build 0)  -->
<svg version="1.1" id="レイヤー_1" xmlns="http://www.w3.org/2000/svg" xmlns:xlink="http://www.w3.org/1999/xlink" x="0px"
	 y="0px" viewBox="0 0 15.37 15.37" style="enable-background:new 0 0 15.37 15.37;" xml:space="preserve">
<style type="text/css">
	.st0{fill:#4D4357;}
</style>
<path class="st0" d="M7.69,0C3.44,0,0,3.44,0,7.69c0,4.24,3.44,7.69,7.69,7.69s7.69-3.44,7.69-7.69C15.37,3.44,11.93,0,7.69,0z
	 M6.53,12.37V8.12V8.1l0,0v0H5.1V6.43h1.44V5.21c0-0.44,0.08-0.82,0.24-1.14c0.01-0.01,0.01-0.02,0.02-0.04
	c0.02-0.05,0.05-0.09,0.08-0.14C6.88,3.87,6.9,3.85,6.91,3.83c0.02-0.03,0.05-0.07,0.07-0.1C7,3.71,7.02,3.69,7.04,3.67
	c0.03-0.03,0.06-0.06,0.08-0.09c0.01-0.01,0.03-0.02,0.04-0.04C7.2,3.5,7.23,3.47,7.27,3.44c0,0,0.01-0.01,0.01-0.01
	C7.65,3.15,8.12,3,8.67,3c0.61,0,1.13,0.05,1.29,0.07v1.49H9.08c-0.69,0-0.83,0.33-0.83,0.81v1.06v0l0,0v0h1.48l0.17,0L9.69,8.1
	H8.26h0l0,0h0v4.27v0.01H6.53L6.53,12.37z"/>
</svg>
