<svg xmlns="http://www.w3.org/2000/svg" xmlns:xlink="http://www.w3.org/1999/xlink" width="131" height="36" viewBox="0 0 131 36"><defs><style>.cls-1,.cls-4{fill:#fff;}.cls-1{stroke:#dff2fc;}.cls-2,.cls-3,.cls-4{fill-rule:evenodd;}.cls-2{fill:url(#名称未設定グラデーション_7);}.cls-3{fill-opacity:0.95;}</style><linearGradient id="名称未設定グラデーション_7" x1="-423.44" y1="2653.54" x2="-423.44" y2="2652.88" gradientTransform="matrix(25.1, 0, 0, -25.1, 10660.45, 66625.29)" gradientUnits="userSpaceOnUse"><stop offset="0" stop-color="#ef4db7"/><stop offset="1" stop-color="#c643fd"/></linearGradient></defs><g id="レイヤー_2" data-name="レイヤー 2"><g id="レイヤー_1-2" data-name="レイヤー 1"><rect class="cls-1" x="0.5" y="0.5" width="130" height="35"/><path class="cls-2" d="M29.38,9.55h-1a7.89,7.89,0,0,0-1.08.1,3.69,3.69,0,0,0-1.9,1,3.51,3.51,0,0,0-1,1.9,9.81,9.81,0,0,0-.09,1.09V21c0,.32,0,.64,0,1a6.57,6.57,0,0,0,.1,1.08,3.61,3.61,0,0,0,1,1.9,3.47,3.47,0,0,0,1.9,1c.36,0,.73.07,1.09.09h8.34a7.89,7.89,0,0,0,1.08-.1,3.69,3.69,0,0,0,1.9-1,3.43,3.43,0,0,0,1-1.9,8,8,0,0,0,.1-1.09V13.61a9.85,9.85,0,0,0-.1-1.08,3.69,3.69,0,0,0-1-1.9,3.5,3.5,0,0,0-1.91-1,9.83,9.83,0,0,0-1.08-.09H29.38Z"/><path class="cls-3" d="M101.46,18.59h3A1.44,1.44,0,0,0,103,17.08,1.51,1.51,0,0,0,101.46,18.59Zm4.14,1.78A2.39,2.39,0,0,1,103,22.2a2.73,2.73,0,0,1-2.82-3c0-1.87,1.09-3.08,2.76-3.08a2.63,2.63,0,0,1,2.69,3v.42h-4.21v.06a1.55,1.55,0,0,0,1.6,1.69,1.35,1.35,0,0,0,1.38-.83Zm-8.66-4.21H98.1v1h0a1.43,1.43,0,0,1,1.43-1.08,1.91,1.91,0,0,1,.42.05v1.14a1.72,1.72,0,0,0-.55-.06,1.22,1.22,0,0,0-1.27,1.36v3.54H96.93v-6Zm-2.21,3c0-1.29-.59-2.05-1.57-2.05s-1.59.77-1.59,2.05.59,2.05,1.58,2.05S94.73,20.43,94.73,19.14Zm-4.41,0a2.84,2.84,0,1,1,5.66,0,2.84,2.84,0,1,1-5.66,0Zm-1.73-4.4v1.42h1.14v1H88.59v3.29c0,.51.23.75.72.75a2.37,2.37,0,0,0,.41,0v1a3.61,3.61,0,0,1-.68.06c-1.21,0-1.68-.46-1.68-1.62V17.13H86.5v-1h.86V14.74ZM81,19.84c.1.81.89,1.35,2,1.35s1.77-.54,1.77-1.27-.44-1-1.51-1.27l-1-.27C80.64,18,80,17.33,80,16.19c0-1.41,1.23-2.39,3-2.39s2.91,1,3,2.39H84.64a1.53,1.53,0,0,0-1.73-1.32c-1,0-1.66.5-1.66,1.23,0,.58.42.92,1.48,1.18l.9.22c1.68.39,2.38,1.07,2.38,2.27,0,1.53-1.22,2.49-3.16,2.49s-3-.94-3.12-2.42ZM74.2,16.09c1.33,0,2.27.73,2.3,1.78H75.35c0-.52-.5-.85-1.18-.85s-1.1.31-1.1.77.29.59.91.75l1,.24c1.2.29,1.66.73,1.66,1.6,0,1.07-1,1.82-2.48,1.82s-2.35-.73-2.44-1.82h1.21c.08.58.54.88,1.28.88s1.2-.3,1.2-.77-.23-.57-.85-.73l-1.07-.26c-1.08-.26-1.62-.81-1.62-1.64,0-1.05.95-1.77,2.33-1.77Zm-7.38,2.5h3a1.43,1.43,0,0,0-1.46-1.51A1.51,1.51,0,0,0,66.82,18.59ZM71,20.37A2.37,2.37,0,0,1,68.4,22.2a2.73,2.73,0,0,1-2.83-3c0-1.87,1.09-3.08,2.77-3.08A2.63,2.63,0,0,1,71,19v.42H66.81v.06a1.56,1.56,0,0,0,1.61,1.69,1.36,1.36,0,0,0,1.38-.83H71ZM59.52,16.16h1.17v1h0a1.9,1.9,0,0,1,1.88-1.08,2,2,0,0,1,2.07,2.21v3.82H63.43V18.53c0-.89-.41-1.39-1.27-1.39a1.39,1.39,0,0,0-1.41,1.55v3.43H59.52Zm-1.22,6H57.14v-1h0a1.85,1.85,0,0,1-1.84,1.1A2,2,0,0,1,53.16,20V16.16h1.23v3.58c0,.91.43,1.39,1.28,1.39a1.38,1.38,0,0,0,1.41-1.54V16.16H58.3Zm-8.89,0V15h-2.5V13.94h6.28V15H50.68v7.09Zm-4.48,0h1.22v-6H44.93Zm-.1-7.54a.7.7,0,0,1,.71-.7.7.7,0,1,1,0,1.4A.7.7,0,0,1,44.83,14.58Z"/><path class="cls-4" d="M31,15.83l-1,3,.94.68,1.62,1.18,2.56-1.87-1-3Z"/></g></g></svg>