<?xml version="1.0" encoding="utf-8"?>
<!-- Generator: Adobe Illustrator 24.0.3, SVG Export Plug-In . SVG Version: 6.00 Build 0)  -->
<svg version="1.1" id="レイヤー_1" xmlns="http://www.w3.org/2000/svg" xmlns:xlink="http://www.w3.org/1999/xlink" x="0px"
	 y="0px" viewBox="0 0 15.4 15.4" style="enable-background:new 0 0 15.4 15.4;" xml:space="preserve">
<style type="text/css">
	.st0{fill:#4D4357;}
</style>
<path class="st0" d="M1.8,0C0.8,0,0,0.8,0,1.8v11.7c0,1,0.8,1.8,1.8,1.8h11.7c1,0,1.8-0.8,1.8-1.8V1.8c0-1-0.8-1.8-1.8-1.8H1.8z
	 M7.7,2.6c3,0,5.5,2,5.5,4.4c0,1-0.4,1.8-1.2,2.7c-0.6,0.7-1.5,1.4-2.4,2c-0.9,0.6-1.7,1-1.9,1.2c-0.1,0-0.2,0.1-0.3,0.1
	c-0.2,0-0.2-0.3-0.2-0.4c0-0.1,0.1-0.5,0.1-0.5c0-0.1,0-0.4,0-0.5c-0.1-0.2-0.3-0.2-0.5-0.3c-2.6-0.3-4.6-2.2-4.6-4.3
	C2.2,4.5,4.7,2.6,7.7,2.6z M7.3,5.5C7.1,5.5,7,5.6,7,5.9v2.2c0,0.2,0.2,0.4,0.4,0.4c0.2,0,0.4-0.2,0.4-0.4V7l0.8,1.3
	c0.2,0.3,0.7,0.1,0.7-0.2V5.9c0-0.2-0.2-0.4-0.4-0.4c-0.2,0-0.4,0.2-0.4,0.4V7L7.6,5.6C7.5,5.5,7.4,5.5,7.3,5.5z M4,5.5
	c-0.2,0-0.4,0.2-0.4,0.4v2.2c0,0.2,0.2,0.4,0.4,0.4h1.1c0.2,0,0.4-0.2,0.4-0.4c0-0.2-0.2-0.4-0.4-0.4H4.4V5.9C4.4,5.7,4.2,5.5,4,5.5
	z M6.2,5.5C6,5.5,5.9,5.7,5.9,5.9v2.2c0,0.2,0.2,0.4,0.4,0.4s0.4-0.2,0.4-0.4V5.9C6.6,5.7,6.4,5.5,6.2,5.5z M9.9,5.5
	c-0.2,0-0.4,0.2-0.4,0.4v2.2c0,0.2,0.2,0.4,0.4,0.4H11c0.2,0,0.4-0.2,0.4-0.4c0-0.2-0.2-0.4-0.4-0.4h-0.7V7.3H11
	c0.2,0,0.4-0.2,0.4-0.4c0-0.2-0.2-0.4-0.4-0.4h-0.7V6.2H11c0.2,0,0.4-0.2,0.4-0.4c0-0.2-0.2-0.4-0.4-0.4H9.9z"/>
</svg>
