<svg xmlns="http://www.w3.org/2000/svg" width="131" height="36" viewBox="0 0 131 36"><defs><style>.cls-1{fill:#fff;stroke:#dff2fc;}.cls-2{fill:#00b900;fill-rule:evenodd;}</style></defs><g id="レイヤー_2" data-name="レイヤー 2"><g id="レイヤー_1-2" data-name="レイヤー 1"><rect class="cls-1" x="0.5" y="0.5" width="130" height="35"/><path class="cls-2" d="M43.37,14.18H42.19a.32.32,0,0,0-.32.33v7.33a.32.32,0,0,0,.32.32h1.18a.32.32,0,0,0,.33-.32V14.51a.33.33,0,0,0-.33-.33m26.05,0H68a.31.31,0,0,0-.26.19c-.09.16-2,3.21-2,3.21l-1.95-3.21c-.09-.16-.19-.19-.25-.19H62.07a.32.32,0,0,0-.32.33v7.33a.33.33,0,0,0,.32.32h1.18a.32.32,0,0,0,.33-.32v-4.6l1.76,2.91a.42.42,0,0,0,.2.18h.4a.57.57,0,0,0,.21-.18l1.76-2.91v4.59a.32.32,0,0,0,.32.33h1.19a.32.32,0,0,0,.32-.33V14.52a.32.32,0,0,0-.32-.33m17.32,0H85.56a.33.33,0,0,0-.33.33v7.33a.32.32,0,0,0,.33.32h1.18a.32.32,0,0,0,.32-.32V14.51a.32.32,0,0,0-.32-.33m-35.26,0H50.3a.33.33,0,0,0-.33.33v4.35l-3.34-4.53a.18.18,0,0,0-.05-.07h-.09l0,0h-1.3a.33.33,0,0,0-.33.33v7.33a.34.34,0,0,0,.33.32h1.18a.32.32,0,0,0,.33-.32V17.48L50,22a.38.38,0,0,0,.11.11h1.34a.33.33,0,0,0,.33-.33v-7.3a.33.33,0,0,0-.33-.33m-11,6.14h-3.2V14.51a.33.33,0,0,0-.33-.33H35.82a.34.34,0,0,0-.33.33v7.33a.37.37,0,0,0,.1.22.34.34,0,0,0,.23.1h4.71a.33.33,0,0,0,.33-.33V20.65a.32.32,0,0,0-.33-.32M58,14.18H53.29a.33.33,0,0,0-.23.1h0a.35.35,0,0,0-.09.23v7.33a.34.34,0,0,0,.1.23.32.32,0,0,0,.23.09H58a.32.32,0,0,0,.33-.32V20.65a.32.32,0,0,0-.33-.32h-3.2V19.09H58a.33.33,0,0,0,.33-.33V17.58a.33.33,0,0,0-.33-.33h-3.2V16H58a.33.33,0,0,0,.33-.33V14.51a.33.33,0,0,0-.33-.33m19.11.33a.32.32,0,0,0-.32-.33H75.6a.33.33,0,0,0-.33.33v4.87a1.29,1.29,0,0,1-2.57,0V14.51a.33.33,0,0,0-.33-.33H71.19a.33.33,0,0,0-.33.33v4.87a3.12,3.12,0,0,0,6.24,0Zm5,2.92c-1.68-.29-2.19-.48-2.19-1.09,0,0,0-.85,1.12-.85a1.12,1.12,0,0,1,1.22.77s0,.18.29.18h1.21c.16,0,.23-.21.22-.33s-.33-2.17-3-2.17A2.73,2.73,0,0,0,78,16.46c-.11,2.18,2,2.4,2.45,2.48s1.77.17,1.77.95-.8.93-1.21.93-1.13-.19-1.28-.74a.39.39,0,0,0-.33-.21H78.18s-.29,0-.25.28.38,2.16,3.1,2.16,3.11-1.74,3.11-2.6a2.18,2.18,0,0,0-2-2.28m12,2.2H92.82a.21.21,0,0,0-.19.15,1.47,1.47,0,0,1-1.22.74A1.34,1.34,0,0,1,90,19.1V17.24a1.34,1.34,0,0,1,1.37-1.41,1.41,1.41,0,0,1,1.21.74.24.24,0,0,0,.2.14H94.1c.07,0,.46,0,.4-.36a3.11,3.11,0,0,0-3.13-2.41,3,3,0,0,0-3.16,3v2.56a3,3,0,0,0,3.16,3A3.13,3.13,0,0,0,94.5,20c.06-.34-.33-.37-.4-.37"/></g></g></svg>