<svg xmlns="http://www.w3.org/2000/svg" width="131" height="36" viewBox="0 0 131 36"><defs><style>.cls-1{fill:#fff;stroke:#dff2fc;}.cls-2{fill:#08112e;fill-rule:evenodd;}</style></defs><g id="レイヤー_2" data-name="レイヤー 2"><g id="レイヤー_1-2" data-name="レイヤー 1"><rect class="cls-1" x="0.5" y="0.5" width="130" height="35"/><path class="cls-2" d="M83.43,15.05H76.82a.48.48,0,0,0-.48.47v6.73a.48.48,0,0,0,.48.47h1.09a.47.47,0,0,0,.47-.47V17.46a.48.48,0,0,1,.48-.47h4.57a.48.48,0,0,0,.48-.47v-1a.48.48,0,0,0-.48-.47M64,15.05H55.19a.47.47,0,0,0-.46.47v6.74a.46.46,0,0,0,.47.46h1.1a.47.47,0,0,0,.47-.46v-4.8a.47.47,0,0,1,.47-.47h.85a.47.47,0,0,1,.47.46v4.81a.46.46,0,0,0,.47.46h1.1a.47.47,0,0,0,.47-.46v-4.8a.47.47,0,0,1,.47-.47h.86a.47.47,0,0,1,.48.46v4.81a.46.46,0,0,0,.47.46H64a.47.47,0,0,0,.48-.46V15.52a.47.47,0,0,0-.48-.47m8.37,5.26a.47.47,0,0,1-.47.47h-3a.47.47,0,0,1-.46-.47V17.46a.47.47,0,0,1,.47-.47h3a.47.47,0,0,1,.48.47v2.85Zm1.57-5.26h-7a.47.47,0,0,0-.47.47v6.74a.46.46,0,0,0,.47.46h7a.48.48,0,0,0,.48-.46V15.52a.48.48,0,0,0-.48-.47ZM91.39,20.4a.47.47,0,0,1-.48.47H88a.47.47,0,0,1-.47-.47V20a.47.47,0,0,1,.47-.48h2.9a.47.47,0,0,1,.48.48ZM93,15.05h-7a.47.47,0,0,0-.48.47v.89a.47.47,0,0,0,.48.47h5a.47.47,0,0,1,.48.48v.26a.47.47,0,0,1-.48.47h-5a.47.47,0,0,0-.48.47v3.69a.47.47,0,0,0,.48.47h7a.47.47,0,0,0,.48-.47V15.52A.47.47,0,0,0,93,15.05ZM50.82,20.16h-1a.47.47,0,0,1-.47-.48h0V13.22a.47.47,0,0,0-.47-.46H46.38a.47.47,0,0,0-.47.46v5.51a.47.47,0,0,1-.47.48H44.3a.48.48,0,0,1-.47-.48h0V11.3a.47.47,0,0,0-.47-.46H40.71a.46.46,0,0,0-.47.46v6.51a.47.47,0,0,1-.47.47H37.05a.46.46,0,0,0-.48.46v3.52a.46.46,0,0,0,.48.46h3.43a.46.46,0,0,0,.46-.46V14.85a.48.48,0,0,1,.48-.47h1.22a.47.47,0,0,1,.48.47v7.41a.46.46,0,0,0,.47.46h2.55a.47.47,0,0,0,.47-.46V16.67a.47.47,0,0,1,.47-.47h1.14a.47.47,0,0,1,.47.47v5.58a.47.47,0,0,0,.48.47h1.64a.47.47,0,0,0,.47-.46V20.62a.46.46,0,0,0-.47-.46"/></g></g></svg>