<svg xmlns="http://www.w3.org/2000/svg" width="131" height="36" viewBox="0 0 131 36"><defs><style>.cls-1{fill:#fff;stroke:#dff2fc;}.cls-2{fill:#e4006f;fill-opacity:0.95;fill-rule:evenodd;}</style></defs><g id="レイヤー_2" data-name="レイヤー 2"><g id="レイヤー_1-2" data-name="レイヤー 1"><rect class="cls-1" x="0.5" y="0.5" width="130" height="35"/><path class="cls-2" d="M91,17.27v0l-1.73,4.1a.15.15,0,0,1-.15.1H86.61a.17.17,0,0,1-.17-.16s0,0,0-.07L88.21,17c.63-1.52-.37-1.67-.69-1.68h-2a1.48,1.48,0,0,0-1.4.91l-.94,2.42a.18.18,0,0,1-.16.1H80.53a.16.16,0,0,1-.17-.16s0,0,0-.06l1-2.62a3,3,0,0,1,1.21-1.45,4.65,4.65,0,0,1,2.2-.54h3.33a3.12,3.12,0,0,1,2.52.94A2.72,2.72,0,0,1,91,17.27Zm-14.87,4H72.31a.19.19,0,0,1-.18-.19v-.85a.18.18,0,0,1,.18-.18h3.4a.92.92,0,0,0,1-1.1.2.2,0,0,0-.18-.2H72.31a.18.18,0,0,1-.18-.17v-.73a.18.18,0,0,1,.18-.17h4.16c.16,0,.16-.13.16-.13v-.33c0-.79-.83-.83-.94-.83H72.31a.18.18,0,0,1-.18-.18v-.85a.18.18,0,0,1,.18-.18h3.77c.32,0,2.88-.08,2.88,3.1A2.71,2.71,0,0,1,76.08,21.28ZM70.3,15.11a.18.18,0,0,1-.18.18H67.3a.19.19,0,0,0-.19.18v1.32a.19.19,0,0,0,.19.18h2.82a.18.18,0,0,1,.18.18v1a.19.19,0,0,1-.18.19H67.3a.19.19,0,0,0-.19.17c-.12,2.85-3.08,3-3.49,3H60.54a.17.17,0,0,1-.18-.17h0V20.21a.17.17,0,0,1,.17-.18h2.59c1.13,0,1.26-1.17,1.26-1.46v0a.18.18,0,0,0-.18-.17H60.54a.19.19,0,0,1-.18-.19v-1a.18.18,0,0,1,.18-.18H64.2a.18.18,0,0,0,.18-.18V15.48a.19.19,0,0,0-.18-.19H60.54a.18.18,0,0,1-.18-.18v-1a.18.18,0,0,1,.18-.17h9.58a.18.18,0,0,1,.18.17v1Zm-15.52,6.4H49.71a.18.18,0,0,1-.18-.18V20.11a.18.18,0,0,1,.18-.18h4.95c.16,0,1.38-.1,1.38-2.19s-1.26-2.25-1.26-2.25H49.71a.18.18,0,0,1-.18-.19V14.08a.18.18,0,0,1,.18-.17h5.44c.74,0,3.4.43,3.47,3.92a3.57,3.57,0,0,1-3.84,3.67Zm-6.43-2a.31.31,0,0,1-.09.21,7.88,7.88,0,0,1-3.93,1.75,20.59,20.59,0,0,1-4.09.29c-.8,0-.71-.85-.71-.85V14.08a.18.18,0,0,1,.18-.19h2.36a.18.18,0,0,1,.18.19v5.57s0,.35.21.35a9.1,9.1,0,0,0,5.6-2.08s.29-.17.29.11Zm48-3.64-2.89-4.25a3.32,3.32,0,0,0-2.75-1.45H34a1.07,1.07,0,0,0-1,1.53l1.59,3.35.6,1.27a3.31,3.31,0,0,1,0,2.85l-.56,1.17-1.63,3.44a1.06,1.06,0,0,0,.51,1.43,1,1,0,0,0,.46.11H90.72a3.35,3.35,0,0,0,2.75-1.45l2.89-4.25A3.33,3.33,0,0,0,96.36,15.87Zm-.65,9.32a1.12,1.12,0,1,1,1.12-1.12,1.12,1.12,0,0,1-1.12,1.12h0m0-2.44a1.33,1.33,0,0,0,0,2.65h0a1.33,1.33,0,1,0,0-2.65"/></g></g></svg>