<svg xmlns="http://www.w3.org/2000/svg" width="131" height="36" viewBox="0 0 131 36"><defs><style>.cls-1{fill:#fff;stroke:#dff2fc;}.cls-2{fill:#1fd760;fill-rule:evenodd;}</style></defs><g id="レイヤー_2" data-name="レイヤー 2"><g id="レイヤー_1-2" data-name="レイヤー 1"><rect class="cls-1" x="0.5" y="0.5" width="130" height="35"/><path class="cls-2" d="M46.5,17c-3.42-2-9.07-2.21-12.34-1.22a1,1,0,1,1-.57-1.89c3.75-1.14,10-.92,13.92,1.41a1,1,0,0,1,.35,1.35A1,1,0,0,1,46.5,17m-.11,3a.83.83,0,0,1-1.14.26A14,14,0,0,0,34.67,19a.82.82,0,1,1-.48-1.57,15.51,15.51,0,0,1,11.93,1.4A.83.83,0,0,1,46.39,20m-1.3,2.87a.66.66,0,0,1-.91.22c-2.49-1.51-5.63-1.86-9.33-1a.66.66,0,1,1-.29-1.29c4-.92,7.51-.52,10.31,1.18a.66.66,0,0,1,.22.91h0M40.22,7.6A10.6,10.6,0,0,0,29.6,18.17h0A10.62,10.62,0,1,0,40.22,7.61m18.26,9.74c-1.83-.43-2.15-.74-2.15-1.37s.57-1,1.43-1a4.22,4.22,0,0,1,2.5.94.12.12,0,0,0,.17,0l.9-1.26a.12.12,0,0,0,0-.16,5.36,5.36,0,0,0-3.52-1.21c-2,0-3.36,1.18-3.36,2.87s1.19,2.45,3.25,2.95c1.76.4,2,.74,2,1.34s-.59,1.08-1.56,1.08a4.24,4.24,0,0,1-2.92-1.2.11.11,0,0,0-.16,0h0l-1,1.18a.12.12,0,0,0,0,.17h0a6,6,0,0,0,4,1.55c2.14,0,3.51-1.16,3.51-3,0-1.52-.91-2.36-3.15-2.9m9.52,2a2,2,0,0,1-1.92,2.17,2,2,0,0,1-2-2.17,2,2,0,0,1,2-2.18A2,2,0,0,1,68,19.39m-1.54-3.83a2.85,2.85,0,0,0-2.31,1.1v-.83a.12.12,0,0,0-.12-.12H62.39a.12.12,0,0,0-.12.12v9.28a.12.12,0,0,0,.12.12H64a.13.13,0,0,0,.12-.12V22.18a3,3,0,0,0,2.31,1,3.52,3.52,0,0,0,3.45-3.83,3.52,3.52,0,0,0-3.45-3.83m7.91,6a2.08,2.08,0,0,1-2.06-2.19,2,2,0,0,1,2-2.17,2.1,2.1,0,0,1,2.08,2.19,2,2,0,0,1-2,2.17m0-6a3.86,3.86,0,0,0-3.94,3.78v.07a3.81,3.81,0,0,0,3.83,3.82h.08a3.87,3.87,0,0,0,4-3.77v-.07a3.83,3.83,0,0,0-3.84-3.83h-.09m8.65.15h-1.8V13.87a.12.12,0,0,0-.12-.12H79.46a.11.11,0,0,0-.12.11V15.7h-.79a.12.12,0,0,0-.12.13v1.4a.12.12,0,0,0,.12.12h.79V21a1.94,1.94,0,0,0,2.18,2.21,3,3,0,0,0,1.54-.38.11.11,0,0,0,.06-.1V21.37a.11.11,0,0,0-.11-.12h-.07a2,2,0,0,1-1,.23c-.53,0-.76-.23-.76-.76V17.35H83a.13.13,0,0,0,.13-.12v-1.4a.12.12,0,0,0-.13-.12m6.3,0v-.23c0-.66.26-1,.83-1a2.55,2.55,0,0,1,.92.17.12.12,0,0,0,.15-.07.11.11,0,0,0,0-.05V13.2a.11.11,0,0,0-.08-.11,4.59,4.59,0,0,0-1.37-.2,2.15,2.15,0,0,0-2.32,2.46v.34h-.78a.13.13,0,0,0-.13.13v1.41a.13.13,0,0,0,.13.12h.78V23a.12.12,0,0,0,.12.12h1.64a.12.12,0,0,0,.13-.12v-5.6h1.53L93.23,23c-.27.59-.53.7-.89.7a1.93,1.93,0,0,1-.91-.25.09.09,0,0,0-.09,0,.1.1,0,0,0-.07.07l-.56,1.21a.13.13,0,0,0,.06.16,3.45,3.45,0,0,0,1.75.44c1.21,0,1.88-.56,2.47-2.07l2.85-7.33a.12.12,0,0,0-.07-.15H96a.13.13,0,0,0-.12.08l-1.75,5-1.92-5a.11.11,0,0,0-.11-.08Zm-3.65,0H84a.12.12,0,0,0-.12.12V23a.12.12,0,0,0,.12.12h1.64a.12.12,0,0,0,.12-.12V15.83a.12.12,0,0,0-.12-.12m-.81-3.25a1.17,1.17,0,0,0-.18,2.34h.18A1.17,1.17,0,0,0,85,12.46h-.18"/></g></g></svg>