<?xml version="1.0" encoding="utf-8"?>
<!-- Generator: Adobe Illustrator 24.0.3, SVG Export Plug-In . SVG Version: 6.00 Build 0)  -->
<svg version="1.1" id="レイヤー_1" xmlns="http://www.w3.org/2000/svg" xmlns:xlink="http://www.w3.org/1999/xlink" x="0px"
	 y="0px" viewBox="0 0 15.37 15.37" style="enable-background:new 0 0 15.37 15.37;" xml:space="preserve">
<style type="text/css">
	.st0{fill:#4D4357;}
</style>
<g>
	<path class="st0" d="M7.69,0C3.44,0,0,3.44,0,7.69c0,4.24,3.44,7.69,7.69,7.69c4.24,0,7.69-3.44,7.69-7.69
		C15.37,3.44,11.93,0,7.69,0z M7.86,6.69C7.86,6.69,7.87,6.69,7.86,6.69C7.84,6.57,7.82,6.44,7.82,6.31c0-0.91,0.74-1.65,1.65-1.65
		c0.47,0,0.9,0.2,1.2,0.52c0.31-0.06,0.6-0.17,0.87-0.31c0.06-0.03,0.12-0.06,0.17-0.09c-0.1,0.3-0.29,0.57-0.53,0.76
		c-0.06,0.05-0.12,0.1-0.19,0.14c0,0,0.01,0,0.01,0c0,0-0.01,0-0.01,0.01c0.27-0.03,0.53-0.1,0.77-0.19
		c0.06-0.02,0.11-0.04,0.17-0.06c-0.22,0.33-0.5,0.62-0.82,0.84c0,0.07,0,0.14,0,0.21c0,2.17-1.66,4.68-4.68,4.68
		c-0.93,0-1.79-0.27-2.52-0.74c0.13,0.01,0.26,0.02,0.39,0.02c0.56,0,1.09-0.14,1.55-0.39c0.01-0.01,0.02-0.01,0.03-0.02
		c0.03-0.02,0.06-0.03,0.09-0.05c0.13-0.07,0.25-0.15,0.37-0.25c0,0,0,0-0.01,0c0,0,0,0,0.01,0c-0.63-0.01-1.17-0.38-1.44-0.9
		c-0.04-0.08-0.07-0.16-0.1-0.24c0.1,0.02,0.2,0.03,0.31,0.03c0.11,0,0.21-0.01,0.32-0.03C5.48,8.61,5.52,8.61,5.56,8.6
		c0,0-0.01,0-0.01,0c0,0,0.01,0,0.01,0C4.8,8.44,4.24,7.78,4.24,6.98V6.96c0.18,0.1,0.37,0.16,0.58,0.19
		c0.06,0.01,0.11,0.02,0.17,0.02c0,0,0,0-0.01,0c0,0,0.01,0,0.01,0c-0.44-0.3-0.73-0.8-0.73-1.37c0-0.26,0.06-0.5,0.17-0.72
		c0.02-0.03,0.03-0.07,0.05-0.1c0.8,0.98,1.99,1.63,3.34,1.71C7.83,6.68,7.85,6.69,7.86,6.69C7.86,6.69,7.86,6.69,7.86,6.69z"/>
</g>
</svg>
